# xmcd
#
# Track frame offsets:
# 150
# 1920
# 14067
# 32152
# 46850
# 60122
# 71360
# 83780
# 99172
# 111887
# 125320
# 137122
# 141777
# 158122
# 172747
# 186942
# 197592
#
# Disc length: 2853 seconds
#
#
# Revision: 0
# Processed by: cddbd v1.5.1PL2 Copyright (c) Steve Scherf et al.
# Submitted via: FreeRIP 2.92 
#
DISCID=d20b2311
DTITLE=TERCEIRA DIMENSÃO - OS SUCESSOS DE TERCEIRA DIMENSÃO AO VIVO
DYEAR=2001
DGENRE=Country
TTITLE0=Abertura
TTITLE1=Padre
TTITLE2=Vou pra SANTA CATARINA
TTITLE3=ALLAN BIQUE
TTITLE4=MELO DO GAGO
TTITLE5=MULHER BOA
TTITLE6=GENRO BOM
TTITLE7=NA COR DOS TEUS OLHOS
TTITLE8=CASAR NÃO É COMIGO
TTITLE9=FAZ TEMPO QUE TENTEIO
TTITLE10=VAQUEIRO LA DO NORTE
TTITLE11=APRESENTAÇÃO
TTITLE12=ANJO PARANAENSE
TTITLE13=TE CHAMO DE ANJO
TTITLE14=OBA
TTITLE15=CARAMBA QUE BAILE BOM
TTITLE16=MARIA TCHA TCHA TCHÁ
EXTD=
EXTT0=
EXTT1=
EXTT2=
EXTT3=
EXTT4=
EXTT5=
EXTT6=
EXTT7=
EXTT8=
EXTT9=
EXTT10=
EXTT11=
EXTT12=
EXTT13=
EXTT14=
EXTT15=
EXTT16=
PLAYORDER=
